<?xml version="1.0" encoding="utf-8" standalone="no"?>
<!DOCTYPE svg PUBLIC "-//W3C//DTD SVG 1.1//EN"
  "http://www.w3.org/Graphics/SVG/1.1/DTD/svg11.dtd">
<svg height="288pt" version="1.1" viewBox="0 0 720 288" width="720pt" xmlns="http://www.w3.org/2000/svg" xmlns:xlink="http://www.w3.org/1999/xlink">
 <metadata>
  <rdf:RDF xmlns:cc="http://creativecommons.org/ns#" xmlns:dc="http://purl.org/dc/elements/1.1/" xmlns:rdf="http://www.w3.org/1999/02/22-rdf-syntax-ns#">
   <cc:Work>
    <dc:type rdf:resource="http://purl.org/dc/dcmitype/StillImage"/>
    <dc:date>2021-06-05T10:42:54.478845</dc:date>
    <dc:format>image/svg+xml</dc:format>
    <dc:creator>
     <cc:Agent>
      <dc:title>Matplotlib v3.4.1, https://matplotlib.org/</dc:title>
     </cc:Agent>
    </dc:creator>
   </cc:Work>
  </rdf:RDF>
 </metadata>
 <defs>
  <style type="text/css">*{stroke-linecap:butt;stroke-linejoin:round;}</style>
 </defs>
 <g id="figure_1">
  <g id="patch_1">
   <path d="M 0 288 
L 720 288 
L 720 0 
L 0 0 
z
" style="fill:none;"/>
  </g>
  <g id="axes_1">
   <g id="patch_2">
    <path d="M 90 252 
L 648 252 
L 648 34.56 
L 90 34.56 
z
" style="fill:#ffffff;"/>
   </g>
   <g id="matplotlib.axis_1">
    <g id="xtick_1">
     <g id="line2d_1">
      <defs>
       <path d="M 0 0 
L 0 3.5 
" id="m8678401f07" style="stroke:#000000;stroke-width:0.8;"/>
      </defs>
      <g>
       <use style="stroke:#000000;stroke-width:0.8;" x="119.487805" xlink:href="#m8678401f07" y="252"/>
      </g>
     </g>
     <g id="text_1">
      <!-- 2010 -->
      <g transform="translate(112.441044 282.368774)rotate(-45)scale(0.1 -0.1)">
       <defs>
        <path d="M 1228 531 
L 3431 531 
L 3431 0 
L 469 0 
L 469 531 
Q 828 903 1448 1529 
Q 2069 2156 2228 2338 
Q 2531 2678 2651 2914 
Q 2772 3150 2772 3378 
Q 2772 3750 2511 3984 
Q 2250 4219 1831 4219 
Q 1534 4219 1204 4116 
Q 875 4013 500 3803 
L 500 4441 
Q 881 4594 1212 4672 
Q 1544 4750 1819 4750 
Q 2544 4750 2975 4387 
Q 3406 4025 3406 3419 
Q 3406 3131 3298 2873 
Q 3191 2616 2906 2266 
Q 2828 2175 2409 1742 
Q 1991 1309 1228 531 
z
" id="DejaVuSans-32" transform="scale(0.015625)"/>
        <path d="M 2034 4250 
Q 1547 4250 1301 3770 
Q 1056 3291 1056 2328 
Q 1056 1369 1301 889 
Q 1547 409 2034 409 
Q 2525 409 2770 889 
Q 3016 1369 3016 2328 
Q 3016 3291 2770 3770 
Q 2525 4250 2034 4250 
z
M 2034 4750 
Q 2819 4750 3233 4129 
Q 3647 3509 3647 2328 
Q 3647 1150 3233 529 
Q 2819 -91 2034 -91 
Q 1250 -91 836 529 
Q 422 1150 422 2328 
Q 422 3509 836 4129 
Q 1250 4750 2034 4750 
z
" id="DejaVuSans-30" transform="scale(0.015625)"/>
        <path d="M 794 531 
L 1825 531 
L 1825 4091 
L 703 3866 
L 703 4441 
L 1819 4666 
L 2450 4666 
L 2450 531 
L 3481 531 
L 3481 0 
L 794 0 
L 794 531 
z
" id="DejaVuSans-31" transform="scale(0.015625)"/>
       </defs>
       <use xlink:href="#DejaVuSans-32"/>
       <use x="63.623047" xlink:href="#DejaVuSans-30"/>
       <use x="127.246094" xlink:href="#DejaVuSans-31"/>
       <use x="190.869141" xlink:href="#DejaVuSans-30"/>
      </g>
     </g>
    </g>
    <g id="xtick_2">
     <g id="line2d_2">
      <g>
       <use style="stroke:#000000;stroke-width:0.8;" x="164.853659" xlink:href="#m8678401f07" y="252"/>
      </g>
     </g>
     <g id="text_2">
      <!-- 2011 -->
      <g transform="translate(157.806898 282.368774)rotate(-45)scale(0.1 -0.1)">
       <use xlink:href="#DejaVuSans-32"/>
       <use x="63.623047" xlink:href="#DejaVuSans-30"/>
       <use x="127.246094" xlink:href="#DejaVuSans-31"/>
       <use x="190.869141" xlink:href="#DejaVuSans-31"/>
      </g>
     </g>
    </g>
    <g id="xtick_3">
     <g id="line2d_3">
      <g>
       <use style="stroke:#000000;stroke-width:0.8;" x="210.219512" xlink:href="#m8678401f07" y="252"/>
      </g>
     </g>
     <g id="text_3">
      <!-- 2012 -->
      <g transform="translate(203.172751 282.368774)rotate(-45)scale(0.1 -0.1)">
       <use xlink:href="#DejaVuSans-32"/>
       <use x="63.623047" xlink:href="#DejaVuSans-30"/>
       <use x="127.246094" xlink:href="#DejaVuSans-31"/>
       <use x="190.869141" xlink:href="#DejaVuSans-32"/>
      </g>
     </g>
    </g>
    <g id="xtick_4">
     <g id="line2d_4">
      <g>
       <use style="stroke:#000000;stroke-width:0.8;" x="255.585366" xlink:href="#m8678401f07" y="252"/>
      </g>
     </g>
     <g id="text_4">
      <!-- 2013 -->
      <g transform="translate(248.538605 282.368774)rotate(-45)scale(0.1 -0.1)">
       <defs>
        <path d="M 2597 2516 
Q 3050 2419 3304 2112 
Q 3559 1806 3559 1356 
Q 3559 666 3084 287 
Q 2609 -91 1734 -91 
Q 1441 -91 1130 -33 
Q 819 25 488 141 
L 488 750 
Q 750 597 1062 519 
Q 1375 441 1716 441 
Q 2309 441 2620 675 
Q 2931 909 2931 1356 
Q 2931 1769 2642 2001 
Q 2353 2234 1838 2234 
L 1294 2234 
L 1294 2753 
L 1863 2753 
Q 2328 2753 2575 2939 
Q 2822 3125 2822 3475 
Q 2822 3834 2567 4026 
Q 2313 4219 1838 4219 
Q 1578 4219 1281 4162 
Q 984 4106 628 3988 
L 628 4550 
Q 988 4650 1302 4700 
Q 1616 4750 1894 4750 
Q 2613 4750 3031 4423 
Q 3450 4097 3450 3541 
Q 3450 3153 3228 2886 
Q 3006 2619 2597 2516 
z
" id="DejaVuSans-33" transform="scale(0.015625)"/>
       </defs>
       <use xlink:href="#DejaVuSans-32"/>
       <use x="63.623047" xlink:href="#DejaVuSans-30"/>
       <use x="127.246094" xlink:href="#DejaVuSans-31"/>
       <use x="190.869141" xlink:href="#DejaVuSans-33"/>
      </g>
     </g>
    </g>
    <g id="xtick_5">
     <g id="line2d_5">
      <g>
       <use style="stroke:#000000;stroke-width:0.8;" x="300.95122" xlink:href="#m8678401f07" y="252"/>
      </g>
     </g>
     <g id="text_5">
      <!-- 2014 -->
      <g transform="translate(293.904458 282.368774)rotate(-45)scale(0.1 -0.1)">
       <defs>
        <path d="M 2419 4116 
L 825 1625 
L 2419 1625 
L 2419 4116 
z
M 2253 4666 
L 3047 4666 
L 3047 1625 
L 3713 1625 
L 3713 1100 
L 3047 1100 
L 3047 0 
L 2419 0 
L 2419 1100 
L 313 1100 
L 313 1709 
L 2253 4666 
z
" id="DejaVuSans-34" transform="scale(0.015625)"/>
       </defs>
       <use xlink:href="#DejaVuSans-32"/>
       <use x="63.623047" xlink:href="#DejaVuSans-30"/>
       <use x="127.246094" xlink:href="#DejaVuSans-31"/>
       <use x="190.869141" xlink:href="#DejaVuSans-34"/>
      </g>
     </g>
    </g>
    <g id="xtick_6">
     <g id="line2d_6">
      <g>
       <use style="stroke:#000000;stroke-width:0.8;" x="346.317073" xlink:href="#m8678401f07" y="252"/>
      </g>
     </g>
     <g id="text_6">
      <!-- 2015 -->
      <g transform="translate(339.270312 282.368774)rotate(-45)scale(0.1 -0.1)">
       <defs>
        <path d="M 691 4666 
L 3169 4666 
L 3169 4134 
L 1269 4134 
L 1269 2991 
Q 1406 3038 1543 3061 
Q 1681 3084 1819 3084 
Q 2600 3084 3056 2656 
Q 3513 2228 3513 1497 
Q 3513 744 3044 326 
Q 2575 -91 1722 -91 
Q 1428 -91 1123 -41 
Q 819 9 494 109 
L 494 744 
Q 775 591 1075 516 
Q 1375 441 1709 441 
Q 2250 441 2565 725 
Q 2881 1009 2881 1497 
Q 2881 1984 2565 2268 
Q 2250 2553 1709 2553 
Q 1456 2553 1204 2497 
Q 953 2441 691 2322 
L 691 4666 
z
" id="DejaVuSans-35" transform="scale(0.015625)"/>
       </defs>
       <use xlink:href="#DejaVuSans-32"/>
       <use x="63.623047" xlink:href="#DejaVuSans-30"/>
       <use x="127.246094" xlink:href="#DejaVuSans-31"/>
       <use x="190.869141" xlink:href="#DejaVuSans-35"/>
      </g>
     </g>
    </g>
    <g id="xtick_7">
     <g id="line2d_7">
      <g>
       <use style="stroke:#000000;stroke-width:0.8;" x="391.682927" xlink:href="#m8678401f07" y="252"/>
      </g>
     </g>
     <g id="text_7">
      <!-- 2016 -->
      <g transform="translate(384.636166 282.368774)rotate(-45)scale(0.1 -0.1)">
       <defs>
        <path d="M 2113 2584 
Q 1688 2584 1439 2293 
Q 1191 2003 1191 1497 
Q 1191 994 1439 701 
Q 1688 409 2113 409 
Q 2538 409 2786 701 
Q 3034 994 3034 1497 
Q 3034 2003 2786 2293 
Q 2538 2584 2113 2584 
z
M 3366 4563 
L 3366 3988 
Q 3128 4100 2886 4159 
Q 2644 4219 2406 4219 
Q 1781 4219 1451 3797 
Q 1122 3375 1075 2522 
Q 1259 2794 1537 2939 
Q 1816 3084 2150 3084 
Q 2853 3084 3261 2657 
Q 3669 2231 3669 1497 
Q 3669 778 3244 343 
Q 2819 -91 2113 -91 
Q 1303 -91 875 529 
Q 447 1150 447 2328 
Q 447 3434 972 4092 
Q 1497 4750 2381 4750 
Q 2619 4750 2861 4703 
Q 3103 4656 3366 4563 
z
" id="DejaVuSans-36" transform="scale(0.015625)"/>
       </defs>
       <use xlink:href="#DejaVuSans-32"/>
       <use x="63.623047" xlink:href="#DejaVuSans-30"/>
       <use x="127.246094" xlink:href="#DejaVuSans-31"/>
       <use x="190.869141" xlink:href="#DejaVuSans-36"/>
      </g>
     </g>
    </g>
    <g id="xtick_8">
     <g id="line2d_8">
      <g>
       <use style="stroke:#000000;stroke-width:0.8;" x="437.04878" xlink:href="#m8678401f07" y="252"/>
      </g>
     </g>
     <g id="text_8">
      <!-- 2017 -->
      <g transform="translate(430.002019 282.368774)rotate(-45)scale(0.1 -0.1)">
       <defs>
        <path d="M 525 4666 
L 3525 4666 
L 3525 4397 
L 1831 0 
L 1172 0 
L 2766 4134 
L 525 4134 
L 525 4666 
z
" id="DejaVuSans-37" transform="scale(0.015625)"/>
       </defs>
       <use xlink:href="#DejaVuSans-32"/>
       <use x="63.623047" xlink:href="#DejaVuSans-30"/>
       <use x="127.246094" xlink:href="#DejaVuSans-31"/>
       <use x="190.869141" xlink:href="#DejaVuSans-37"/>
      </g>
     </g>
    </g>
    <g id="xtick_9">
     <g id="line2d_9">
      <g>
       <use style="stroke:#000000;stroke-width:0.8;" x="482.414634" xlink:href="#m8678401f07" y="252"/>
      </g>
     </g>
     <g id="text_9">
      <!-- 2018 -->
      <g transform="translate(475.367873 282.368774)rotate(-45)scale(0.1 -0.1)">
       <defs>
        <path d="M 2034 2216 
Q 1584 2216 1326 1975 
Q 1069 1734 1069 1313 
Q 1069 891 1326 650 
Q 1584 409 2034 409 
Q 2484 409 2743 651 
Q 3003 894 3003 1313 
Q 3003 1734 2745 1975 
Q 2488 2216 2034 2216 
z
M 1403 2484 
Q 997 2584 770 2862 
Q 544 3141 544 3541 
Q 544 4100 942 4425 
Q 1341 4750 2034 4750 
Q 2731 4750 3128 4425 
Q 3525 4100 3525 3541 
Q 3525 3141 3298 2862 
Q 3072 2584 2669 2484 
Q 3125 2378 3379 2068 
Q 3634 1759 3634 1313 
Q 3634 634 3220 271 
Q 2806 -91 2034 -91 
Q 1263 -91 848 271 
Q 434 634 434 1313 
Q 434 1759 690 2068 
Q 947 2378 1403 2484 
z
M 1172 3481 
Q 1172 3119 1398 2916 
Q 1625 2713 2034 2713 
Q 2441 2713 2670 2916 
Q 2900 3119 2900 3481 
Q 2900 3844 2670 4047 
Q 2441 4250 2034 4250 
Q 1625 4250 1398 4047 
Q 1172 3844 1172 3481 
z
" id="DejaVuSans-38" transform="scale(0.015625)"/>
       </defs>
       <use xlink:href="#DejaVuSans-32"/>
       <use x="63.623047" xlink:href="#DejaVuSans-30"/>
       <use x="127.246094" xlink:href="#DejaVuSans-31"/>
       <use x="190.869141" xlink:href="#DejaVuSans-38"/>
      </g>
     </g>
    </g>
    <g id="xtick_10">
     <g id="line2d_10">
      <g>
       <use style="stroke:#000000;stroke-width:0.8;" x="527.780488" xlink:href="#m8678401f07" y="252"/>
      </g>
     </g>
     <g id="text_10">
      <!-- 2019 -->
      <g transform="translate(520.733727 282.368774)rotate(-45)scale(0.1 -0.1)">
       <defs>
        <path d="M 703 97 
L 703 672 
Q 941 559 1184 500 
Q 1428 441 1663 441 
Q 2288 441 2617 861 
Q 2947 1281 2994 2138 
Q 2813 1869 2534 1725 
Q 2256 1581 1919 1581 
Q 1219 1581 811 2004 
Q 403 2428 403 3163 
Q 403 3881 828 4315 
Q 1253 4750 1959 4750 
Q 2769 4750 3195 4129 
Q 3622 3509 3622 2328 
Q 3622 1225 3098 567 
Q 2575 -91 1691 -91 
Q 1453 -91 1209 -44 
Q 966 3 703 97 
z
M 1959 2075 
Q 2384 2075 2632 2365 
Q 2881 2656 2881 3163 
Q 2881 3666 2632 3958 
Q 2384 4250 1959 4250 
Q 1534 4250 1286 3958 
Q 1038 3666 1038 3163 
Q 1038 2656 1286 2365 
Q 1534 2075 1959 2075 
z
" id="DejaVuSans-39" transform="scale(0.015625)"/>
       </defs>
       <use xlink:href="#DejaVuSans-32"/>
       <use x="63.623047" xlink:href="#DejaVuSans-30"/>
       <use x="127.246094" xlink:href="#DejaVuSans-31"/>
       <use x="190.869141" xlink:href="#DejaVuSans-39"/>
      </g>
     </g>
    </g>
    <g id="xtick_11">
     <g id="line2d_11">
      <g>
       <use style="stroke:#000000;stroke-width:0.8;" x="573.146341" xlink:href="#m8678401f07" y="252"/>
      </g>
     </g>
     <g id="text_11">
      <!-- 2020 -->
      <g transform="translate(566.09958 282.368774)rotate(-45)scale(0.1 -0.1)">
       <use xlink:href="#DejaVuSans-32"/>
       <use x="63.623047" xlink:href="#DejaVuSans-30"/>
       <use x="127.246094" xlink:href="#DejaVuSans-32"/>
       <use x="190.869141" xlink:href="#DejaVuSans-30"/>
      </g>
     </g>
    </g>
    <g id="xtick_12">
     <g id="line2d_12">
      <g>
       <use style="stroke:#000000;stroke-width:0.8;" x="618.512195" xlink:href="#m8678401f07" y="252"/>
      </g>
     </g>
     <g id="text_12">
      <!-- 2021 -->
      <g transform="translate(611.465434 282.368774)rotate(-45)scale(0.1 -0.1)">
       <use xlink:href="#DejaVuSans-32"/>
       <use x="63.623047" xlink:href="#DejaVuSans-30"/>
       <use x="127.246094" xlink:href="#DejaVuSans-32"/>
       <use x="190.869141" xlink:href="#DejaVuSans-31"/>
      </g>
     </g>
    </g>
    <g id="text_13">
     <!-- Announced Year -->
     <g transform="translate(328.66875 295.437773)scale(0.1 -0.1)">
      <defs>
       <path d="M 2188 4044 
L 1331 1722 
L 3047 1722 
L 2188 4044 
z
M 1831 4666 
L 2547 4666 
L 4325 0 
L 3669 0 
L 3244 1197 
L 1141 1197 
L 716 0 
L 50 0 
L 1831 4666 
z
" id="DejaVuSans-41" transform="scale(0.015625)"/>
       <path d="M 3513 2113 
L 3513 0 
L 2938 0 
L 2938 2094 
Q 2938 2591 2744 2837 
Q 2550 3084 2163 3084 
Q 1697 3084 1428 2787 
Q 1159 2491 1159 1978 
L 1159 0 
L 581 0 
L 581 3500 
L 1159 3500 
L 1159 2956 
Q 1366 3272 1645 3428 
Q 1925 3584 2291 3584 
Q 2894 3584 3203 3211 
Q 3513 2838 3513 2113 
z
" id="DejaVuSans-6e" transform="scale(0.015625)"/>
       <path d="M 1959 3097 
Q 1497 3097 1228 2736 
Q 959 2375 959 1747 
Q 959 1119 1226 758 
Q 1494 397 1959 397 
Q 2419 397 2687 759 
Q 2956 1122 2956 1747 
Q 2956 2369 2687 2733 
Q 2419 3097 1959 3097 
z
M 1959 3584 
Q 2709 3584 3137 3096 
Q 3566 2609 3566 1747 
Q 3566 888 3137 398 
Q 2709 -91 1959 -91 
Q 1206 -91 779 398 
Q 353 888 353 1747 
Q 353 2609 779 3096 
Q 1206 3584 1959 3584 
z
" id="DejaVuSans-6f" transform="scale(0.015625)"/>
       <path d="M 544 1381 
L 544 3500 
L 1119 3500 
L 1119 1403 
Q 1119 906 1312 657 
Q 1506 409 1894 409 
Q 2359 409 2629 706 
Q 2900 1003 2900 1516 
L 2900 3500 
L 3475 3500 
L 3475 0 
L 2900 0 
L 2900 538 
Q 2691 219 2414 64 
Q 2138 -91 1772 -91 
Q 1169 -91 856 284 
Q 544 659 544 1381 
z
M 1991 3584 
L 1991 3584 
z
" id="DejaVuSans-75" transform="scale(0.015625)"/>
       <path d="M 3122 3366 
L 3122 2828 
Q 2878 2963 2633 3030 
Q 2388 3097 2138 3097 
Q 1578 3097 1268 2742 
Q 959 2388 959 1747 
Q 959 1106 1268 751 
Q 1578 397 2138 397 
Q 2388 397 2633 464 
Q 2878 531 3122 666 
L 3122 134 
Q 2881 22 2623 -34 
Q 2366 -91 2075 -91 
Q 1284 -91 818 406 
Q 353 903 353 1747 
Q 353 2603 823 3093 
Q 1294 3584 2113 3584 
Q 2378 3584 2631 3529 
Q 2884 3475 3122 3366 
z
" id="DejaVuSans-63" transform="scale(0.015625)"/>
       <path d="M 3597 1894 
L 3597 1613 
L 953 1613 
Q 991 1019 1311 708 
Q 1631 397 2203 397 
Q 2534 397 2845 478 
Q 3156 559 3463 722 
L 3463 178 
Q 3153 47 2828 -22 
Q 2503 -91 2169 -91 
Q 1331 -91 842 396 
Q 353 884 353 1716 
Q 353 2575 817 3079 
Q 1281 3584 2069 3584 
Q 2775 3584 3186 3129 
Q 3597 2675 3597 1894 
z
M 3022 2063 
Q 3016 2534 2758 2815 
Q 2500 3097 2075 3097 
Q 1594 3097 1305 2825 
Q 1016 2553 972 2059 
L 3022 2063 
z
" id="DejaVuSans-65" transform="scale(0.015625)"/>
       <path d="M 2906 2969 
L 2906 4863 
L 3481 4863 
L 3481 0 
L 2906 0 
L 2906 525 
Q 2725 213 2448 61 
Q 2172 -91 1784 -91 
Q 1150 -91 751 415 
Q 353 922 353 1747 
Q 353 2572 751 3078 
Q 1150 3584 1784 3584 
Q 2172 3584 2448 3432 
Q 2725 3281 2906 2969 
z
M 947 1747 
Q 947 1113 1208 752 
Q 1469 391 1925 391 
Q 2381 391 2643 752 
Q 2906 1113 2906 1747 
Q 2906 2381 2643 2742 
Q 2381 3103 1925 3103 
Q 1469 3103 1208 2742 
Q 947 2381 947 1747 
z
" id="DejaVuSans-64" transform="scale(0.015625)"/>
       <path id="DejaVuSans-20" transform="scale(0.015625)"/>
       <path d="M -13 4666 
L 666 4666 
L 1959 2747 
L 3244 4666 
L 3922 4666 
L 2272 2222 
L 2272 0 
L 1638 0 
L 1638 2222 
L -13 4666 
z
" id="DejaVuSans-59" transform="scale(0.015625)"/>
       <path d="M 2194 1759 
Q 1497 1759 1228 1600 
Q 959 1441 959 1056 
Q 959 750 1161 570 
Q 1363 391 1709 391 
Q 2188 391 2477 730 
Q 2766 1069 2766 1631 
L 2766 1759 
L 2194 1759 
z
M 3341 1997 
L 3341 0 
L 2766 0 
L 2766 531 
Q 2569 213 2275 61 
Q 1981 -91 1556 -91 
Q 1019 -91 701 211 
Q 384 513 384 1019 
Q 384 1609 779 1909 
Q 1175 2209 1959 2209 
L 2766 2209 
L 2766 2266 
Q 2766 2663 2505 2880 
Q 2244 3097 1772 3097 
Q 1472 3097 1187 3025 
Q 903 2953 641 2809 
L 641 3341 
Q 956 3463 1253 3523 
Q 1550 3584 1831 3584 
Q 2591 3584 2966 3190 
Q 3341 2797 3341 1997 
z
" id="DejaVuSans-61" transform="scale(0.015625)"/>
       <path d="M 2631 2963 
Q 2534 3019 2420 3045 
Q 2306 3072 2169 3072 
Q 1681 3072 1420 2755 
Q 1159 2438 1159 1844 
L 1159 0 
L 581 0 
L 581 3500 
L 1159 3500 
L 1159 2956 
Q 1341 3275 1631 3429 
Q 1922 3584 2338 3584 
Q 2397 3584 2469 3576 
Q 2541 3569 2628 3553 
L 2631 2963 
z
" id="DejaVuSans-72" transform="scale(0.015625)"/>
      </defs>
      <use xlink:href="#DejaVuSans-41"/>
      <use x="68.408203" xlink:href="#DejaVuSans-6e"/>
      <use x="131.787109" xlink:href="#DejaVuSans-6e"/>
      <use x="195.166016" xlink:href="#DejaVuSans-6f"/>
      <use x="256.347656" xlink:href="#DejaVuSans-75"/>
      <use x="319.726562" xlink:href="#DejaVuSans-6e"/>
      <use x="383.105469" xlink:href="#DejaVuSans-63"/>
      <use x="438.085938" xlink:href="#DejaVuSans-65"/>
      <use x="499.609375" xlink:href="#DejaVuSans-64"/>
      <use x="563.085938" xlink:href="#DejaVuSans-20"/>
      <use x="594.873047" xlink:href="#DejaVuSans-59"/>
      <use x="642.707031" xlink:href="#DejaVuSans-65"/>
      <use x="704.230469" xlink:href="#DejaVuSans-61"/>
      <use x="765.509766" xlink:href="#DejaVuSans-72"/>
     </g>
    </g>
   </g>
   <g id="matplotlib.axis_2">
    <g id="ytick_1">
     <g id="line2d_13">
      <path clip-path="url(#p46324ff343)" d="M 90 252 
L 648 252 
" style="fill:none;stroke:#b0b0b0;stroke-linecap:square;stroke-width:0.8;"/>
     </g>
     <g id="line2d_14">
      <defs>
       <path d="M 0 0 
L -3.5 0 
" id="m9ad041fe93" style="stroke:#000000;stroke-width:0.8;"/>
      </defs>
      <g>
       <use style="stroke:#000000;stroke-width:0.8;" x="90" xlink:href="#m9ad041fe93" y="252"/>
      </g>
     </g>
     <g id="text_14">
      <!-- 0 -->
      <g transform="translate(76.6375 255.799219)scale(0.1 -0.1)">
       <use xlink:href="#DejaVuSans-30"/>
      </g>
     </g>
    </g>
    <g id="ytick_2">
     <g id="line2d_15">
      <path clip-path="url(#p46324ff343)" d="M 90 227.169579 
L 648 227.169579 
" style="fill:none;stroke:#b0b0b0;stroke-linecap:square;stroke-width:0.8;"/>
     </g>
     <g id="line2d_16">
      <g>
       <use style="stroke:#000000;stroke-width:0.8;" x="90" xlink:href="#m9ad041fe93" y="227.169579"/>
      </g>
     </g>
     <g id="text_15">
      <!-- 50 -->
      <g transform="translate(70.275 230.968797)scale(0.1 -0.1)">
       <use xlink:href="#DejaVuSans-35"/>
       <use x="63.623047" xlink:href="#DejaVuSans-30"/>
      </g>
     </g>
    </g>
    <g id="ytick_3">
     <g id="line2d_17">
      <path clip-path="url(#p46324ff343)" d="M 90 202.339157 
L 648 202.339157 
" style="fill:none;stroke:#b0b0b0;stroke-linecap:square;stroke-width:0.8;"/>
     </g>
     <g id="line2d_18">
      <g>
       <use style="stroke:#000000;stroke-width:0.8;" x="90" xlink:href="#m9ad041fe93" y="202.339157"/>
      </g>
     </g>
     <g id="text_16">
      <!-- 100 -->
      <g transform="translate(63.9125 206.138376)scale(0.1 -0.1)">
       <use xlink:href="#DejaVuSans-31"/>
       <use x="63.623047" xlink:href="#DejaVuSans-30"/>
       <use x="127.246094" xlink:href="#DejaVuSans-30"/>
      </g>
     </g>
    </g>
    <g id="ytick_4">
     <g id="line2d_19">
      <path clip-path="url(#p46324ff343)" d="M 90 177.508736 
L 648 177.508736 
" style="fill:none;stroke:#b0b0b0;stroke-linecap:square;stroke-width:0.8;"/>
     </g>
     <g id="line2d_20">
      <g>
       <use style="stroke:#000000;stroke-width:0.8;" x="90" xlink:href="#m9ad041fe93" y="177.508736"/>
      </g>
     </g>
     <g id="text_17">
      <!-- 150 -->
      <g transform="translate(63.9125 181.307955)scale(0.1 -0.1)">
       <use xlink:href="#DejaVuSans-31"/>
       <use x="63.623047" xlink:href="#DejaVuSans-35"/>
       <use x="127.246094" xlink:href="#DejaVuSans-30"/>
      </g>
     </g>
    </g>
    <g id="ytick_5">
     <g id="line2d_21">
      <path clip-path="url(#p46324ff343)" d="M 90 152.678314 
L 648 152.678314 
" style="fill:none;stroke:#b0b0b0;stroke-linecap:square;stroke-width:0.8;"/>
     </g>
     <g id="line2d_22">
      <g>
       <use style="stroke:#000000;stroke-width:0.8;" x="90" xlink:href="#m9ad041fe93" y="152.678314"/>
      </g>
     </g>
     <g id="text_18">
      <!-- 200 -->
      <g transform="translate(63.9125 156.477533)scale(0.1 -0.1)">
       <use xlink:href="#DejaVuSans-32"/>
       <use x="63.623047" xlink:href="#DejaVuSans-30"/>
       <use x="127.246094" xlink:href="#DejaVuSans-30"/>
      </g>
     </g>
    </g>
    <g id="ytick_6">
     <g id="line2d_23">
      <path clip-path="url(#p46324ff343)" d="M 90 127.847893 
L 648 127.847893 
" style="fill:none;stroke:#b0b0b0;stroke-linecap:square;stroke-width:0.8;"/>
     </g>
     <g id="line2d_24">
      <g>
       <use style="stroke:#000000;stroke-width:0.8;" x="90" xlink:href="#m9ad041fe93" y="127.847893"/>
      </g>
     </g>
     <g id="text_19">
      <!-- 250 -->
      <g transform="translate(63.9125 131.647112)scale(0.1 -0.1)">
       <use xlink:href="#DejaVuSans-32"/>
       <use x="63.623047" xlink:href="#DejaVuSans-35"/>
       <use x="127.246094" xlink:href="#DejaVuSans-30"/>
      </g>
     </g>
    </g>
    <g id="ytick_7">
     <g id="line2d_25">
      <path clip-path="url(#p46324ff343)" d="M 90 103.017472 
L 648 103.017472 
" style="fill:none;stroke:#b0b0b0;stroke-linecap:square;stroke-width:0.8;"/>
     </g>
     <g id="line2d_26">
      <g>
       <use style="stroke:#000000;stroke-width:0.8;" x="90" xlink:href="#m9ad041fe93" y="103.017472"/>
      </g>
     </g>
     <g id="text_20">
      <!-- 300 -->
      <g transform="translate(63.9125 106.81669)scale(0.1 -0.1)">
       <use xlink:href="#DejaVuSans-33"/>
       <use x="63.623047" xlink:href="#DejaVuSans-30"/>
       <use x="127.246094" xlink:href="#DejaVuSans-30"/>
      </g>
     </g>
    </g>
    <g id="ytick_8">
     <g id="line2d_27">
      <path clip-path="url(#p46324ff343)" d="M 90 78.18705 
L 648 78.18705 
" style="fill:none;stroke:#b0b0b0;stroke-linecap:square;stroke-width:0.8;"/>
     </g>
     <g id="line2d_28">
      <g>
       <use style="stroke:#000000;stroke-width:0.8;" x="90" xlink:href="#m9ad041fe93" y="78.18705"/>
      </g>
     </g>
     <g id="text_21">
      <!-- 350 -->
      <g transform="translate(63.9125 81.986269)scale(0.1 -0.1)">
       <use xlink:href="#DejaVuSans-33"/>
       <use x="63.623047" xlink:href="#DejaVuSans-35"/>
       <use x="127.246094" xlink:href="#DejaVuSans-30"/>
      </g>
     </g>
    </g>
    <g id="ytick_9">
     <g id="line2d_29">
      <path clip-path="url(#p46324ff343)" d="M 90 53.356629 
L 648 53.356629 
" style="fill:none;stroke:#b0b0b0;stroke-linecap:square;stroke-width:0.8;"/>
     </g>
     <g id="line2d_30">
      <g>
       <use style="stroke:#000000;stroke-width:0.8;" x="90" xlink:href="#m9ad041fe93" y="53.356629"/>
      </g>
     </g>
     <g id="text_22">
      <!-- 400 -->
      <g transform="translate(63.9125 57.155848)scale(0.1 -0.1)">
       <use xlink:href="#DejaVuSans-34"/>
       <use x="63.623047" xlink:href="#DejaVuSans-30"/>
       <use x="127.246094" xlink:href="#DejaVuSans-30"/>
      </g>
     </g>
    </g>
    <g id="text_23">
     <!-- # of raisings -->
     <g transform="translate(57.832812 174.9175)rotate(-90)scale(0.1 -0.1)">
      <defs>
       <path d="M 3272 2816 
L 2363 2816 
L 2100 1772 
L 3016 1772 
L 3272 2816 
z
M 2803 4594 
L 2478 3297 
L 3391 3297 
L 3719 4594 
L 4219 4594 
L 3897 3297 
L 4872 3297 
L 4872 2816 
L 3775 2816 
L 3519 1772 
L 4513 1772 
L 4513 1294 
L 3397 1294 
L 3072 0 
L 2572 0 
L 2894 1294 
L 1978 1294 
L 1656 0 
L 1153 0 
L 1478 1294 
L 494 1294 
L 494 1772 
L 1594 1772 
L 1856 2816 
L 850 2816 
L 850 3297 
L 1978 3297 
L 2297 4594 
L 2803 4594 
z
" id="DejaVuSans-23" transform="scale(0.015625)"/>
       <path d="M 2375 4863 
L 2375 4384 
L 1825 4384 
Q 1516 4384 1395 4259 
Q 1275 4134 1275 3809 
L 1275 3500 
L 2222 3500 
L 2222 3053 
L 1275 3053 
L 1275 0 
L 697 0 
L 697 3053 
L 147 3053 
L 147 3500 
L 697 3500 
L 697 3744 
Q 697 4328 969 4595 
Q 1241 4863 1831 4863 
L 2375 4863 
z
" id="DejaVuSans-66" transform="scale(0.015625)"/>
       <path d="M 603 3500 
L 1178 3500 
L 1178 0 
L 603 0 
L 603 3500 
z
M 603 4863 
L 1178 4863 
L 1178 4134 
L 603 4134 
L 603 4863 
z
" id="DejaVuSans-69" transform="scale(0.015625)"/>
       <path d="M 2834 3397 
L 2834 2853 
Q 2591 2978 2328 3040 
Q 2066 3103 1784 3103 
Q 1356 3103 1142 2972 
Q 928 2841 928 2578 
Q 928 2378 1081 2264 
Q 1234 2150 1697 2047 
L 1894 2003 
Q 2506 1872 2764 1633 
Q 3022 1394 3022 966 
Q 3022 478 2636 193 
Q 2250 -91 1575 -91 
Q 1294 -91 989 -36 
Q 684 19 347 128 
L 347 722 
Q 666 556 975 473 
Q 1284 391 1588 391 
Q 1994 391 2212 530 
Q 2431 669 2431 922 
Q 2431 1156 2273 1281 
Q 2116 1406 1581 1522 
L 1381 1569 
Q 847 1681 609 1914 
Q 372 2147 372 2553 
Q 372 3047 722 3315 
Q 1072 3584 1716 3584 
Q 2034 3584 2315 3537 
Q 2597 3491 2834 3397 
z
" id="DejaVuSans-73" transform="scale(0.015625)"/>
       <path d="M 2906 1791 
Q 2906 2416 2648 2759 
Q 2391 3103 1925 3103 
Q 1463 3103 1205 2759 
Q 947 2416 947 1791 
Q 947 1169 1205 825 
Q 1463 481 1925 481 
Q 2391 481 2648 825 
Q 2906 1169 2906 1791 
z
M 3481 434 
Q 3481 -459 3084 -895 
Q 2688 -1331 1869 -1331 
Q 1566 -1331 1297 -1286 
Q 1028 -1241 775 -1147 
L 775 -588 
Q 1028 -725 1275 -790 
Q 1522 -856 1778 -856 
Q 2344 -856 2625 -561 
Q 2906 -266 2906 331 
L 2906 616 
Q 2728 306 2450 153 
Q 2172 0 1784 0 
Q 1141 0 747 490 
Q 353 981 353 1791 
Q 353 2603 747 3093 
Q 1141 3584 1784 3584 
Q 2172 3584 2450 3431 
Q 2728 3278 2906 2969 
L 2906 3500 
L 3481 3500 
L 3481 434 
z
" id="DejaVuSans-67" transform="scale(0.015625)"/>
      </defs>
      <use xlink:href="#DejaVuSans-23"/>
      <use x="83.789062" xlink:href="#DejaVuSans-20"/>
      <use x="115.576172" xlink:href="#DejaVuSans-6f"/>
      <use x="176.757812" xlink:href="#DejaVuSans-66"/>
      <use x="211.962891" xlink:href="#DejaVuSans-20"/>
      <use x="243.75" xlink:href="#DejaVuSans-72"/>
      <use x="284.863281" xlink:href="#DejaVuSans-61"/>
      <use x="346.142578" xlink:href="#DejaVuSans-69"/>
      <use x="373.925781" xlink:href="#DejaVuSans-73"/>
      <use x="426.025391" xlink:href="#DejaVuSans-69"/>
      <use x="453.808594" xlink:href="#DejaVuSans-6e"/>
      <use x="517.1875" xlink:href="#DejaVuSans-67"/>
      <use x="580.664062" xlink:href="#DejaVuSans-73"/>
     </g>
    </g>
   </g>
   <g id="patch_3">
    <path clip-path="url(#p46324ff343)" d="M 101.341463 252 
L 137.634146 252 
L 137.634146 229.156012 
L 101.341463 229.156012 
z
" style="fill:#1f77b4;"/>
   </g>
   <g id="patch_4">
    <path clip-path="url(#p46324ff343)" d="M 146.707317 252 
L 183 252 
L 183 209.788284 
L 146.707317 209.788284 
z
" style="fill:#1f77b4;"/>
   </g>
   <g id="patch_5">
    <path clip-path="url(#p46324ff343)" d="M 192.073171 252 
L 228.365854 252 
L 228.365854 198.862898 
L 192.073171 198.862898 
z
" style="fill:#1f77b4;"/>
   </g>
   <g id="patch_6">
    <path clip-path="url(#p46324ff343)" d="M 237.439024 252 
L 273.731707 252 
L 273.731707 169.563001 
L 237.439024 169.563001 
z
" style="fill:#1f77b4;"/>
   </g>
   <g id="patch_7">
    <path clip-path="url(#p46324ff343)" d="M 282.804878 252 
L 319.097561 252 
L 319.097561 157.644399 
L 282.804878 157.644399 
z
" style="fill:#1f77b4;"/>
   </g>
   <g id="patch_8">
    <path clip-path="url(#p46324ff343)" d="M 328.170732 252 
L 364.463415 252 
L 364.463415 171.549435 
L 328.170732 171.549435 
z
" style="fill:#1f77b4;"/>
   </g>
   <g id="patch_9">
    <path clip-path="url(#p46324ff343)" d="M 373.536585 252 
L 409.829268 252 
L 409.829268 174.032477 
L 373.536585 174.032477 
z
" style="fill:#1f77b4;"/>
   </g>
   <g id="patch_10">
    <path clip-path="url(#p46324ff343)" d="M 418.902439 252 
L 455.195122 252 
L 455.195122 169.563001 
L 418.902439 169.563001 
z
" style="fill:#1f77b4;"/>
   </g>
   <g id="patch_11">
    <path clip-path="url(#p46324ff343)" d="M 464.268293 252 
L 500.560976 252 
L 500.560976 161.120658 
L 464.268293 161.120658 
z
" style="fill:#1f77b4;"/>
   </g>
   <g id="patch_12">
    <path clip-path="url(#p46324ff343)" d="M 509.634146 252 
L 545.926829 252 
L 545.926829 172.542652 
L 509.634146 172.542652 
z
" style="fill:#1f77b4;"/>
   </g>
   <g id="patch_13">
    <path clip-path="url(#p46324ff343)" d="M 555 252 
L 591.292683 252 
L 591.292683 174.032477 
L 555 174.032477 
z
" style="fill:#1f77b4;"/>
   </g>
   <g id="patch_14">
    <path clip-path="url(#p46324ff343)" d="M 600.365854 252 
L 636.658537 252 
L 636.658537 228.162795 
L 600.365854 228.162795 
z
" style="fill:#1f77b4;"/>
   </g>
   <g id="patch_15">
    <path clip-path="url(#p46324ff343)" d="M 101.341463 229.156012 
L 137.634146 229.156012 
L 137.634146 224.686536 
L 101.341463 224.686536 
z
" style="fill:#ff7f0e;"/>
   </g>
   <g id="patch_16">
    <path clip-path="url(#p46324ff343)" d="M 146.707317 209.788284 
L 183 209.788284 
L 183 202.339157 
L 146.707317 202.339157 
z
" style="fill:#ff7f0e;"/>
   </g>
   <g id="patch_17">
    <path clip-path="url(#p46324ff343)" d="M 192.073171 198.862898 
L 228.365854 198.862898 
L 228.365854 190.420555 
L 192.073171 190.420555 
z
" style="fill:#ff7f0e;"/>
   </g>
   <g id="patch_18">
    <path clip-path="url(#p46324ff343)" d="M 237.439024 169.563001 
L 273.731707 169.563001 
L 273.731707 155.657965 
L 237.439024 155.657965 
z
" style="fill:#ff7f0e;"/>
   </g>
   <g id="patch_19">
    <path clip-path="url(#p46324ff343)" d="M 282.804878 157.644399 
L 319.097561 157.644399 
L 319.097561 127.847893 
L 282.804878 127.847893 
z
" style="fill:#ff7f0e;"/>
   </g>
   <g id="patch_20">
    <path clip-path="url(#p46324ff343)" d="M 328.170732 171.549435 
L 364.463415 171.549435 
L 364.463415 135.793628 
L 328.170732 135.793628 
z
" style="fill:#ff7f0e;"/>
   </g>
   <g id="patch_21">
    <path clip-path="url(#p46324ff343)" d="M 373.536585 174.032477 
L 409.829268 174.032477 
L 409.829268 135.29702 
L 373.536585 135.29702 
z
" style="fill:#ff7f0e;"/>
   </g>
   <g id="patch_22">
    <path clip-path="url(#p46324ff343)" d="M 418.902439 169.563001 
L 455.195122 169.563001 
L 455.195122 124.371634 
L 418.902439 124.371634 
z
" style="fill:#ff7f0e;"/>
   </g>
   <g id="patch_23">
    <path clip-path="url(#p46324ff343)" d="M 464.268293 161.120658 
L 500.560976 161.120658 
L 500.560976 105.997122 
L 464.268293 105.997122 
z
" style="fill:#ff7f0e;"/>
   </g>
   <g id="patch_24">
    <path clip-path="url(#p46324ff343)" d="M 509.634146 172.542652 
L 545.926829 172.542652 
L 545.926829 122.881809 
L 509.634146 122.881809 
z
" style="fill:#ff7f0e;"/>
   </g>
   <g id="patch_25">
    <path clip-path="url(#p46324ff343)" d="M 555 174.032477 
L 591.292683 174.032477 
L 591.292683 127.847893 
L 555 127.847893 
z
" style="fill:#ff7f0e;"/>
   </g>
   <g id="patch_26">
    <path clip-path="url(#p46324ff343)" d="M 600.365854 228.162795 
L 636.658537 228.162795 
L 636.658537 212.767934 
L 600.365854 212.767934 
z
" style="fill:#ff7f0e;"/>
   </g>
   <g id="patch_27">
    <path clip-path="url(#p46324ff343)" d="M 101.341463 224.686536 
L 137.634146 224.686536 
L 137.634146 219.223844 
L 101.341463 219.223844 
z
" style="fill:#2ca02c;"/>
   </g>
   <g id="patch_28">
    <path clip-path="url(#p46324ff343)" d="M 146.707317 202.339157 
L 183 202.339157 
L 183 192.903597 
L 146.707317 192.903597 
z
" style="fill:#2ca02c;"/>
   </g>
   <g id="patch_29">
    <path clip-path="url(#p46324ff343)" d="M 192.073171 190.420555 
L 228.365854 190.420555 
L 228.365854 178.501953 
L 192.073171 178.501953 
z
" style="fill:#2ca02c;"/>
   </g>
   <g id="patch_30">
    <path clip-path="url(#p46324ff343)" d="M 237.439024 155.657965 
L 273.731707 155.657965 
L 273.731707 134.800411 
L 237.439024 134.800411 
z
" style="fill:#2ca02c;"/>
   </g>
   <g id="patch_31">
    <path clip-path="url(#p46324ff343)" d="M 282.804878 127.847893 
L 319.097561 127.847893 
L 319.097561 101.031038 
L 282.804878 101.031038 
z
" style="fill:#2ca02c;"/>
   </g>
   <g id="patch_32">
    <path clip-path="url(#p46324ff343)" d="M 328.170732 135.793628 
L 364.463415 135.793628 
L 364.463415 99.541213 
L 328.170732 99.541213 
z
" style="fill:#2ca02c;"/>
   </g>
   <g id="patch_33">
    <path clip-path="url(#p46324ff343)" d="M 373.536585 135.29702 
L 409.829268 135.29702 
L 409.829268 96.064954 
L 373.536585 96.064954 
z
" style="fill:#2ca02c;"/>
   </g>
   <g id="patch_34">
    <path clip-path="url(#p46324ff343)" d="M 418.902439 124.371634 
L 455.195122 124.371634 
L 455.195122 79.180267 
L 418.902439 79.180267 
z
" style="fill:#2ca02c;"/>
   </g>
   <g id="patch_35">
    <path clip-path="url(#p46324ff343)" d="M 464.268293 105.997122 
L 500.560976 105.997122 
L 500.560976 61.798972 
L 464.268293 61.798972 
z
" style="fill:#2ca02c;"/>
   </g>
   <g id="patch_36">
    <path clip-path="url(#p46324ff343)" d="M 509.634146 122.881809 
L 545.926829 122.881809 
L 545.926829 77.690442 
L 509.634146 77.690442 
z
" style="fill:#2ca02c;"/>
   </g>
   <g id="patch_37">
    <path clip-path="url(#p46324ff343)" d="M 555 127.847893 
L 591.292683 127.847893 
L 591.292683 90.602261 
L 555 90.602261 
z
" style="fill:#2ca02c;"/>
   </g>
   <g id="patch_38">
    <path clip-path="url(#p46324ff343)" d="M 600.365854 212.767934 
L 636.658537 212.767934 
L 636.658537 197.869681 
L 600.365854 197.869681 
z
" style="fill:#2ca02c;"/>
   </g>
   <g id="patch_39">
    <path clip-path="url(#p46324ff343)" d="M 101.341463 219.223844 
L 137.634146 219.223844 
L 137.634146 218.727235 
L 101.341463 218.727235 
z
" style="fill:#d62728;"/>
   </g>
   <g id="patch_40">
    <path clip-path="url(#p46324ff343)" d="M 146.707317 192.903597 
L 183 192.903597 
L 183 191.91038 
L 146.707317 191.91038 
z
" style="fill:#d62728;"/>
   </g>
   <g id="patch_41">
    <path clip-path="url(#p46324ff343)" d="M 192.073171 178.501953 
L 228.365854 178.501953 
L 228.365854 171.549435 
L 192.073171 171.549435 
z
" style="fill:#d62728;"/>
   </g>
   <g id="patch_42">
    <path clip-path="url(#p46324ff343)" d="M 237.439024 134.800411 
L 273.731707 134.800411 
L 273.731707 128.84111 
L 237.439024 128.84111 
z
" style="fill:#d62728;"/>
   </g>
   <g id="patch_43">
    <path clip-path="url(#p46324ff343)" d="M 282.804878 101.031038 
L 319.097561 101.031038 
L 319.097561 97.058171 
L 282.804878 97.058171 
z
" style="fill:#d62728;"/>
   </g>
   <g id="patch_44">
    <path clip-path="url(#p46324ff343)" d="M 328.170732 99.541213 
L 364.463415 99.541213 
L 364.463415 94.07852 
L 328.170732 94.07852 
z
" style="fill:#d62728;"/>
   </g>
   <g id="patch_45">
    <path clip-path="url(#p46324ff343)" d="M 373.536585 96.064954 
L 409.829268 96.064954 
L 409.829268 89.609044 
L 373.536585 89.609044 
z
" style="fill:#d62728;"/>
   </g>
   <g id="patch_46">
    <path clip-path="url(#p46324ff343)" d="M 418.902439 79.180267 
L 455.195122 79.180267 
L 455.195122 74.214183 
L 418.902439 74.214183 
z
" style="fill:#d62728;"/>
   </g>
   <g id="patch_47">
    <path clip-path="url(#p46324ff343)" d="M 464.268293 61.798972 
L 500.560976 61.798972 
L 500.560976 52.363412 
L 464.268293 52.363412 
z
" style="fill:#d62728;"/>
   </g>
   <g id="patch_48">
    <path clip-path="url(#p46324ff343)" d="M 509.634146 77.690442 
L 545.926829 77.690442 
L 545.926829 69.744707 
L 509.634146 69.744707 
z
" style="fill:#d62728;"/>
   </g>
   <g id="patch_49">
    <path clip-path="url(#p46324ff343)" d="M 555 90.602261 
L 591.292683 90.602261 
L 591.292683 83.649743 
L 555 83.649743 
z
" style="fill:#d62728;"/>
   </g>
   <g id="patch_50">
    <path clip-path="url(#p46324ff343)" d="M 600.365854 197.869681 
L 636.658537 197.869681 
L 636.658537 194.393422 
L 600.365854 194.393422 
z
" style="fill:#d62728;"/>
   </g>
   <g id="patch_51">
    <path clip-path="url(#p46324ff343)" d="M 101.341463 252 
L 137.634146 252 
L 137.634146 252 
L 101.341463 252 
z
" style="fill:#9467bd;"/>
   </g>
   <g id="patch_52">
    <path clip-path="url(#p46324ff343)" d="M 146.707317 252 
L 183 252 
L 183 252 
L 146.707317 252 
z
" style="fill:#9467bd;"/>
   </g>
   <g id="patch_53">
    <path clip-path="url(#p46324ff343)" d="M 192.073171 252 
L 228.365854 252 
L 228.365854 252 
L 192.073171 252 
z
" style="fill:#9467bd;"/>
   </g>
   <g id="patch_54">
    <path clip-path="url(#p46324ff343)" d="M 237.439024 252 
L 273.731707 252 
L 273.731707 252 
L 237.439024 252 
z
" style="fill:#9467bd;"/>
   </g>
   <g id="patch_55">
    <path clip-path="url(#p46324ff343)" d="M 282.804878 97.058171 
L 319.097561 97.058171 
L 319.097561 96.064954 
L 282.804878 96.064954 
z
" style="fill:#9467bd;"/>
   </g>
   <g id="patch_56">
    <path clip-path="url(#p46324ff343)" d="M 328.170732 94.07852 
L 364.463415 94.07852 
L 364.463415 92.588695 
L 328.170732 92.588695 
z
" style="fill:#9467bd;"/>
   </g>
   <g id="patch_57">
    <path clip-path="url(#p46324ff343)" d="M 373.536585 89.609044 
L 409.829268 89.609044 
L 409.829268 89.112436 
L 373.536585 89.112436 
z
" style="fill:#9467bd;"/>
   </g>
   <g id="patch_58">
    <path clip-path="url(#p46324ff343)" d="M 418.902439 74.214183 
L 455.195122 74.214183 
L 455.195122 71.731141 
L 418.902439 71.731141 
z
" style="fill:#9467bd;"/>
   </g>
   <g id="patch_59">
    <path clip-path="url(#p46324ff343)" d="M 464.268293 52.363412 
L 500.560976 52.363412 
L 500.560976 48.887153 
L 464.268293 48.887153 
z
" style="fill:#9467bd;"/>
   </g>
   <g id="patch_60">
    <path clip-path="url(#p46324ff343)" d="M 509.634146 69.744707 
L 545.926829 69.744707 
L 545.926829 65.77184 
L 509.634146 65.77184 
z
" style="fill:#9467bd;"/>
   </g>
   <g id="patch_61">
    <path clip-path="url(#p46324ff343)" d="M 555 83.649743 
L 591.292683 83.649743 
L 591.292683 79.676876 
L 555 79.676876 
z
" style="fill:#9467bd;"/>
   </g>
   <g id="patch_62">
    <path clip-path="url(#p46324ff343)" d="M 600.365854 194.393422 
L 636.658537 194.393422 
L 636.658537 193.896814 
L 600.365854 193.896814 
z
" style="fill:#9467bd;"/>
   </g>
   <g id="patch_63">
    <path clip-path="url(#p46324ff343)" d="M 101.341463 252 
L 137.634146 252 
L 137.634146 252 
L 101.341463 252 
z
" style="fill:#8c564b;"/>
   </g>
   <g id="patch_64">
    <path clip-path="url(#p46324ff343)" d="M 146.707317 191.91038 
L 183 191.91038 
L 183 190.917163 
L 146.707317 190.917163 
z
" style="fill:#8c564b;"/>
   </g>
   <g id="patch_65">
    <path clip-path="url(#p46324ff343)" d="M 192.073171 252 
L 228.365854 252 
L 228.365854 252 
L 192.073171 252 
z
" style="fill:#8c564b;"/>
   </g>
   <g id="patch_66">
    <path clip-path="url(#p46324ff343)" d="M 237.439024 128.84111 
L 273.731707 128.84111 
L 273.731707 126.854676 
L 237.439024 126.854676 
z
" style="fill:#8c564b;"/>
   </g>
   <g id="patch_67">
    <path clip-path="url(#p46324ff343)" d="M 282.804878 96.064954 
L 319.097561 96.064954 
L 319.097561 94.07852 
L 282.804878 94.07852 
z
" style="fill:#8c564b;"/>
   </g>
   <g id="patch_68">
    <path clip-path="url(#p46324ff343)" d="M 328.170732 92.588695 
L 364.463415 92.588695 
L 364.463415 87.62261 
L 328.170732 87.62261 
z
" style="fill:#8c564b;"/>
   </g>
   <g id="patch_69">
    <path clip-path="url(#p46324ff343)" d="M 373.536585 89.112436 
L 409.829268 89.112436 
L 409.829268 86.132785 
L 373.536585 86.132785 
z
" style="fill:#8c564b;"/>
   </g>
   <g id="patch_70">
    <path clip-path="url(#p46324ff343)" d="M 418.902439 71.731141 
L 455.195122 71.731141 
L 455.195122 68.75149 
L 418.902439 68.75149 
z
" style="fill:#8c564b;"/>
   </g>
   <g id="patch_71">
    <path clip-path="url(#p46324ff343)" d="M 464.268293 48.887153 
L 500.560976 48.887153 
L 500.560976 44.914286 
L 464.268293 44.914286 
z
" style="fill:#8c564b;"/>
   </g>
   <g id="patch_72">
    <path clip-path="url(#p46324ff343)" d="M 509.634146 65.77184 
L 545.926829 65.77184 
L 545.926829 63.288798 
L 509.634146 63.288798 
z
" style="fill:#8c564b;"/>
   </g>
   <g id="patch_73">
    <path clip-path="url(#p46324ff343)" d="M 555 79.676876 
L 591.292683 79.676876 
L 591.292683 78.683659 
L 555 78.683659 
z
" style="fill:#8c564b;"/>
   </g>
   <g id="patch_74">
    <path clip-path="url(#p46324ff343)" d="M 600.365854 252 
L 636.658537 252 
L 636.658537 252 
L 600.365854 252 
z
" style="fill:#8c564b;"/>
   </g>
   <g id="patch_75">
    <path d="M 90 252 
L 90 34.56 
" style="fill:none;stroke:#000000;stroke-linecap:square;stroke-linejoin:miter;stroke-width:0.8;"/>
   </g>
   <g id="patch_76">
    <path d="M 648 252 
L 648 34.56 
" style="fill:none;stroke:#000000;stroke-linecap:square;stroke-linejoin:miter;stroke-width:0.8;"/>
   </g>
   <g id="patch_77">
    <path d="M 90 252 
L 648 252 
" style="fill:none;stroke:#000000;stroke-linecap:square;stroke-linejoin:miter;stroke-width:0.8;"/>
   </g>
   <g id="patch_78">
    <path d="M 90 34.56 
L 648 34.56 
" style="fill:none;stroke:#000000;stroke-linecap:square;stroke-linejoin:miter;stroke-width:0.8;"/>
   </g>
   <g id="text_24">
    <!-- # of Raisings by years -->
    <g transform="translate(301.78125 28.56)scale(0.12 -0.12)">
     <defs>
      <path d="M 2841 2188 
Q 3044 2119 3236 1894 
Q 3428 1669 3622 1275 
L 4263 0 
L 3584 0 
L 2988 1197 
Q 2756 1666 2539 1819 
Q 2322 1972 1947 1972 
L 1259 1972 
L 1259 0 
L 628 0 
L 628 4666 
L 2053 4666 
Q 2853 4666 3247 4331 
Q 3641 3997 3641 3322 
Q 3641 2881 3436 2590 
Q 3231 2300 2841 2188 
z
M 1259 4147 
L 1259 2491 
L 2053 2491 
Q 2509 2491 2742 2702 
Q 2975 2913 2975 3322 
Q 2975 3731 2742 3939 
Q 2509 4147 2053 4147 
L 1259 4147 
z
" id="DejaVuSans-52" transform="scale(0.015625)"/>
      <path d="M 3116 1747 
Q 3116 2381 2855 2742 
Q 2594 3103 2138 3103 
Q 1681 3103 1420 2742 
Q 1159 2381 1159 1747 
Q 1159 1113 1420 752 
Q 1681 391 2138 391 
Q 2594 391 2855 752 
Q 3116 1113 3116 1747 
z
M 1159 2969 
Q 1341 3281 1617 3432 
Q 1894 3584 2278 3584 
Q 2916 3584 3314 3078 
Q 3713 2572 3713 1747 
Q 3713 922 3314 415 
Q 2916 -91 2278 -91 
Q 1894 -91 1617 61 
Q 1341 213 1159 525 
L 1159 0 
L 581 0 
L 581 4863 
L 1159 4863 
L 1159 2969 
z
" id="DejaVuSans-62" transform="scale(0.015625)"/>
      <path d="M 2059 -325 
Q 1816 -950 1584 -1140 
Q 1353 -1331 966 -1331 
L 506 -1331 
L 506 -850 
L 844 -850 
Q 1081 -850 1212 -737 
Q 1344 -625 1503 -206 
L 1606 56 
L 191 3500 
L 800 3500 
L 1894 763 
L 2988 3500 
L 3597 3500 
L 2059 -325 
z
" id="DejaVuSans-79" transform="scale(0.015625)"/>
     </defs>
     <use xlink:href="#DejaVuSans-23"/>
     <use x="83.789062" xlink:href="#DejaVuSans-20"/>
     <use x="115.576172" xlink:href="#DejaVuSans-6f"/>
     <use x="176.757812" xlink:href="#DejaVuSans-66"/>
     <use x="211.962891" xlink:href="#DejaVuSans-20"/>
     <use x="243.75" xlink:href="#DejaVuSans-52"/>
     <use x="310.982422" xlink:href="#DejaVuSans-61"/>
     <use x="372.261719" xlink:href="#DejaVuSans-69"/>
     <use x="400.044922" xlink:href="#DejaVuSans-73"/>
     <use x="452.144531" xlink:href="#DejaVuSans-69"/>
     <use x="479.927734" xlink:href="#DejaVuSans-6e"/>
     <use x="543.306641" xlink:href="#DejaVuSans-67"/>
     <use x="606.783203" xlink:href="#DejaVuSans-73"/>
     <use x="658.882812" xlink:href="#DejaVuSans-20"/>
     <use x="690.669922" xlink:href="#DejaVuSans-62"/>
     <use x="754.146484" xlink:href="#DejaVuSans-79"/>
     <use x="813.326172" xlink:href="#DejaVuSans-20"/>
     <use x="845.113281" xlink:href="#DejaVuSans-79"/>
     <use x="904.292969" xlink:href="#DejaVuSans-65"/>
     <use x="965.816406" xlink:href="#DejaVuSans-61"/>
     <use x="1027.095703" xlink:href="#DejaVuSans-72"/>
     <use x="1068.208984" xlink:href="#DejaVuSans-73"/>
    </g>
   </g>
   <g id="legend_1">
    <g id="patch_79">
     <path d="M 97 145.306875 
L 202.490625 145.306875 
Q 204.490625 145.306875 204.490625 143.306875 
L 204.490625 41.56 
Q 204.490625 39.56 202.490625 39.56 
L 97 39.56 
Q 95 39.56 95 41.56 
L 95 143.306875 
Q 95 145.306875 97 145.306875 
z
" style="fill:#ffffff;opacity:0.8;stroke:#cccccc;stroke-linejoin:miter;"/>
    </g>
    <g id="text_25">
     <!-- continent -->
     <g transform="translate(126.044531 51.158437)scale(0.1 -0.1)">
      <defs>
       <path d="M 1172 4494 
L 1172 3500 
L 2356 3500 
L 2356 3053 
L 1172 3053 
L 1172 1153 
Q 1172 725 1289 603 
Q 1406 481 1766 481 
L 2356 481 
L 2356 0 
L 1766 0 
Q 1100 0 847 248 
Q 594 497 594 1153 
L 594 3053 
L 172 3053 
L 172 3500 
L 594 3500 
L 594 4494 
L 1172 4494 
z
" id="DejaVuSans-74" transform="scale(0.015625)"/>
      </defs>
      <use xlink:href="#DejaVuSans-63"/>
      <use x="54.980469" xlink:href="#DejaVuSans-6f"/>
      <use x="116.162109" xlink:href="#DejaVuSans-6e"/>
      <use x="179.541016" xlink:href="#DejaVuSans-74"/>
      <use x="218.75" xlink:href="#DejaVuSans-69"/>
      <use x="246.533203" xlink:href="#DejaVuSans-6e"/>
      <use x="309.912109" xlink:href="#DejaVuSans-65"/>
      <use x="371.435547" xlink:href="#DejaVuSans-6e"/>
      <use x="434.814453" xlink:href="#DejaVuSans-74"/>
     </g>
    </g>
    <g id="patch_80">
     <path d="M 99 65.836563 
L 119 65.836563 
L 119 58.836563 
L 99 58.836563 
z
" style="fill:#1f77b4;"/>
    </g>
    <g id="text_26">
     <!-- North America -->
     <g transform="translate(127 65.836563)scale(0.1 -0.1)">
      <defs>
       <path d="M 628 4666 
L 1478 4666 
L 3547 763 
L 3547 4666 
L 4159 4666 
L 4159 0 
L 3309 0 
L 1241 3903 
L 1241 0 
L 628 0 
L 628 4666 
z
" id="DejaVuSans-4e" transform="scale(0.015625)"/>
       <path d="M 3513 2113 
L 3513 0 
L 2938 0 
L 2938 2094 
Q 2938 2591 2744 2837 
Q 2550 3084 2163 3084 
Q 1697 3084 1428 2787 
Q 1159 2491 1159 1978 
L 1159 0 
L 581 0 
L 581 4863 
L 1159 4863 
L 1159 2956 
Q 1366 3272 1645 3428 
Q 1925 3584 2291 3584 
Q 2894 3584 3203 3211 
Q 3513 2838 3513 2113 
z
" id="DejaVuSans-68" transform="scale(0.015625)"/>
       <path d="M 3328 2828 
Q 3544 3216 3844 3400 
Q 4144 3584 4550 3584 
Q 5097 3584 5394 3201 
Q 5691 2819 5691 2113 
L 5691 0 
L 5113 0 
L 5113 2094 
Q 5113 2597 4934 2840 
Q 4756 3084 4391 3084 
Q 3944 3084 3684 2787 
Q 3425 2491 3425 1978 
L 3425 0 
L 2847 0 
L 2847 2094 
Q 2847 2600 2669 2842 
Q 2491 3084 2119 3084 
Q 1678 3084 1418 2786 
Q 1159 2488 1159 1978 
L 1159 0 
L 581 0 
L 581 3500 
L 1159 3500 
L 1159 2956 
Q 1356 3278 1631 3431 
Q 1906 3584 2284 3584 
Q 2666 3584 2933 3390 
Q 3200 3197 3328 2828 
z
" id="DejaVuSans-6d" transform="scale(0.015625)"/>
      </defs>
      <use xlink:href="#DejaVuSans-4e"/>
      <use x="74.804688" xlink:href="#DejaVuSans-6f"/>
      <use x="135.986328" xlink:href="#DejaVuSans-72"/>
      <use x="177.099609" xlink:href="#DejaVuSans-74"/>
      <use x="216.308594" xlink:href="#DejaVuSans-68"/>
      <use x="279.6875" xlink:href="#DejaVuSans-20"/>
      <use x="311.474609" xlink:href="#DejaVuSans-41"/>
      <use x="379.882812" xlink:href="#DejaVuSans-6d"/>
      <use x="477.294922" xlink:href="#DejaVuSans-65"/>
      <use x="538.818359" xlink:href="#DejaVuSans-72"/>
      <use x="579.931641" xlink:href="#DejaVuSans-69"/>
      <use x="607.714844" xlink:href="#DejaVuSans-63"/>
      <use x="662.695312" xlink:href="#DejaVuSans-61"/>
     </g>
    </g>
    <g id="patch_81">
     <path d="M 99 80.514688 
L 119 80.514688 
L 119 73.514688 
L 99 73.514688 
z
" style="fill:#ff7f0e;"/>
    </g>
    <g id="text_27">
     <!-- Asia -->
     <g transform="translate(127 80.514688)scale(0.1 -0.1)">
      <use xlink:href="#DejaVuSans-41"/>
      <use x="68.408203" xlink:href="#DejaVuSans-73"/>
      <use x="120.507812" xlink:href="#DejaVuSans-69"/>
      <use x="148.291016" xlink:href="#DejaVuSans-61"/>
     </g>
    </g>
    <g id="patch_82">
     <path d="M 99 95.192813 
L 119 95.192813 
L 119 88.192813 
L 99 88.192813 
z
" style="fill:#2ca02c;"/>
    </g>
    <g id="text_28">
     <!-- Europe -->
     <g transform="translate(127 95.192813)scale(0.1 -0.1)">
      <defs>
       <path d="M 628 4666 
L 3578 4666 
L 3578 4134 
L 1259 4134 
L 1259 2753 
L 3481 2753 
L 3481 2222 
L 1259 2222 
L 1259 531 
L 3634 531 
L 3634 0 
L 628 0 
L 628 4666 
z
" id="DejaVuSans-45" transform="scale(0.015625)"/>
       <path d="M 1159 525 
L 1159 -1331 
L 581 -1331 
L 581 3500 
L 1159 3500 
L 1159 2969 
Q 1341 3281 1617 3432 
Q 1894 3584 2278 3584 
Q 2916 3584 3314 3078 
Q 3713 2572 3713 1747 
Q 3713 922 3314 415 
Q 2916 -91 2278 -91 
Q 1894 -91 1617 61 
Q 1341 213 1159 525 
z
M 3116 1747 
Q 3116 2381 2855 2742 
Q 2594 3103 2138 3103 
Q 1681 3103 1420 2742 
Q 1159 2381 1159 1747 
Q 1159 1113 1420 752 
Q 1681 391 2138 391 
Q 2594 391 2855 752 
Q 3116 1113 3116 1747 
z
" id="DejaVuSans-70" transform="scale(0.015625)"/>
      </defs>
      <use xlink:href="#DejaVuSans-45"/>
      <use x="63.183594" xlink:href="#DejaVuSans-75"/>
      <use x="126.5625" xlink:href="#DejaVuSans-72"/>
      <use x="165.425781" xlink:href="#DejaVuSans-6f"/>
      <use x="226.607422" xlink:href="#DejaVuSans-70"/>
      <use x="290.083984" xlink:href="#DejaVuSans-65"/>
     </g>
    </g>
    <g id="patch_83">
     <path d="M 99 109.870938 
L 119 109.870938 
L 119 102.870938 
L 99 102.870938 
z
" style="fill:#d62728;"/>
    </g>
    <g id="text_29">
     <!-- South America -->
     <g transform="translate(127 109.870938)scale(0.1 -0.1)">
      <defs>
       <path d="M 3425 4513 
L 3425 3897 
Q 3066 4069 2747 4153 
Q 2428 4238 2131 4238 
Q 1616 4238 1336 4038 
Q 1056 3838 1056 3469 
Q 1056 3159 1242 3001 
Q 1428 2844 1947 2747 
L 2328 2669 
Q 3034 2534 3370 2195 
Q 3706 1856 3706 1288 
Q 3706 609 3251 259 
Q 2797 -91 1919 -91 
Q 1588 -91 1214 -16 
Q 841 59 441 206 
L 441 856 
Q 825 641 1194 531 
Q 1563 422 1919 422 
Q 2459 422 2753 634 
Q 3047 847 3047 1241 
Q 3047 1584 2836 1778 
Q 2625 1972 2144 2069 
L 1759 2144 
Q 1053 2284 737 2584 
Q 422 2884 422 3419 
Q 422 4038 858 4394 
Q 1294 4750 2059 4750 
Q 2388 4750 2728 4690 
Q 3069 4631 3425 4513 
z
" id="DejaVuSans-53" transform="scale(0.015625)"/>
      </defs>
      <use xlink:href="#DejaVuSans-53"/>
      <use x="63.476562" xlink:href="#DejaVuSans-6f"/>
      <use x="124.658203" xlink:href="#DejaVuSans-75"/>
      <use x="188.037109" xlink:href="#DejaVuSans-74"/>
      <use x="227.246094" xlink:href="#DejaVuSans-68"/>
      <use x="290.625" xlink:href="#DejaVuSans-20"/>
      <use x="322.412109" xlink:href="#DejaVuSans-41"/>
      <use x="390.820312" xlink:href="#DejaVuSans-6d"/>
      <use x="488.232422" xlink:href="#DejaVuSans-65"/>
      <use x="549.755859" xlink:href="#DejaVuSans-72"/>
      <use x="590.869141" xlink:href="#DejaVuSans-69"/>
      <use x="618.652344" xlink:href="#DejaVuSans-63"/>
      <use x="673.632812" xlink:href="#DejaVuSans-61"/>
     </g>
    </g>
    <g id="patch_84">
     <path d="M 99 124.549063 
L 119 124.549063 
L 119 117.549063 
L 99 117.549063 
z
" style="fill:#9467bd;"/>
    </g>
    <g id="text_30">
     <!-- Africa -->
     <g transform="translate(127 124.549063)scale(0.1 -0.1)">
      <use xlink:href="#DejaVuSans-41"/>
      <use x="64.783203" xlink:href="#DejaVuSans-66"/>
      <use x="99.988281" xlink:href="#DejaVuSans-72"/>
      <use x="141.101562" xlink:href="#DejaVuSans-69"/>
      <use x="168.884766" xlink:href="#DejaVuSans-63"/>
      <use x="223.865234" xlink:href="#DejaVuSans-61"/>
     </g>
    </g>
    <g id="patch_85">
     <path d="M 99 139.227188 
L 119 139.227188 
L 119 132.227188 
L 99 132.227188 
z
" style="fill:#8c564b;"/>
    </g>
    <g id="text_31">
     <!-- Oceania -->
     <g transform="translate(127 139.227188)scale(0.1 -0.1)">
      <defs>
       <path d="M 2522 4238 
Q 1834 4238 1429 3725 
Q 1025 3213 1025 2328 
Q 1025 1447 1429 934 
Q 1834 422 2522 422 
Q 3209 422 3611 934 
Q 4013 1447 4013 2328 
Q 4013 3213 3611 3725 
Q 3209 4238 2522 4238 
z
M 2522 4750 
Q 3503 4750 4090 4092 
Q 4678 3434 4678 2328 
Q 4678 1225 4090 567 
Q 3503 -91 2522 -91 
Q 1538 -91 948 565 
Q 359 1222 359 2328 
Q 359 3434 948 4092 
Q 1538 4750 2522 4750 
z
" id="DejaVuSans-4f" transform="scale(0.015625)"/>
      </defs>
      <use xlink:href="#DejaVuSans-4f"/>
      <use x="78.710938" xlink:href="#DejaVuSans-63"/>
      <use x="133.691406" xlink:href="#DejaVuSans-65"/>
      <use x="195.214844" xlink:href="#DejaVuSans-61"/>
      <use x="256.494141" xlink:href="#DejaVuSans-6e"/>
      <use x="319.873047" xlink:href="#DejaVuSans-69"/>
      <use x="347.65625" xlink:href="#DejaVuSans-61"/>
     </g>
    </g>
   </g>
  </g>
 </g>
 <defs>
  <clipPath id="p46324ff343">
   <rect height="217.44" width="558" x="90" y="34.56"/>
  </clipPath>
 </defs>
</svg>
